<?xml version="1.0" encoding="UTF-8"?>
<svg xmlns="http://www.w3.org/2000/svg" xmlns:xlink="http://www.w3.org/1999/xlink" width="182pt" height="74pt" viewBox="0 0 182 74" version="1.1">
<defs>
<clipPath id="clip1">
  <path d="M 35.085938 62.199219 L 161.085938 62.199219 L 161.085938 11.800781 L 35.085938 11.800781 Z M 35.085938 11.800781 "/>
</clipPath>
<clipPath id="clip2">
  <path d="M 35.085938 62.199219 L 161.085938 62.199219 L 161.085938 11.800781 L 35.085938 11.800781 Z M 35.085938 11.800781 "/>
</clipPath>
</defs>
<g id="surface358">
<g clip-path="url(#clip1)" clip-rule="nonzero">
<path style=" stroke:none;fill-rule:nonzero;fill:rgb(0%,0%,100%);fill-opacity:0.0784314;" d="M 35.085938 44.980469 L 36.136719 43.550781 L 37.1875 42.535156 L 38.238281 41.875 L 39.285156 41.402344 L 40.335938 41.140625 L 41.386719 40.957031 L 42.4375 40.816406 L 43.488281 40.699219 L 44.535156 40.554688 L 45.585938 40.339844 L 46.636719 39.882813 L 47.6875 39.445313 L 48.738281 38.828125 L 49.785156 38.253906 L 50.835938 37.5 L 51.886719 36.773438 L 52.9375 36.085938 L 53.988281 35.492188 L 55.035156 34.882813 L 56.085938 34.191406 L 57.136719 33.902344 L 58.1875 33.609375 L 59.238281 33.46875 L 60.285156 33.316406 L 61.335938 33.015625 L 62.386719 32.910156 L 63.4375 32.761719 L 64.488281 32.753906 L 65.535156 32.558594 L 66.585938 32.40625 L 67.636719 32.179688 L 68.6875 31.910156 L 69.738281 31.695313 L 70.785156 31.683594 L 71.835938 31.269531 L 72.886719 31.164063 L 73.9375 31.003906 L 74.988281 30.886719 L 76.035156 30.867188 L 77.085938 30.851563 L 78.136719 30.640625 L 79.1875 30.628906 L 80.238281 30.371094 L 81.285156 30.195313 L 82.335938 29.867188 L 83.386719 29.613281 L 84.4375 29.136719 L 85.488281 28.761719 L 86.535156 28.316406 L 87.585938 28.046875 L 88.636719 27.546875 L 89.6875 27.070313 L 90.738281 26.816406 L 91.785156 26.683594 L 92.835938 26.273438 L 93.886719 26.128906 L 94.9375 26 L 95.988281 25.988281 L 97.035156 25.917969 L 98.085938 25.765625 L 99.136719 25.722656 L 100.1875 25.5625 L 101.238281 25.414063 L 102.285156 25.257813 L 103.335938 25.109375 L 104.386719 24.96875 L 105.4375 24.90625 L 106.488281 24.875 L 107.535156 24.746094 L 108.585938 24.457031 L 109.636719 24.4375 L 110.6875 24.046875 L 111.738281 24.003906 L 112.785156 23.925781 L 113.835938 23.699219 L 114.886719 23.71875 L 115.9375 23.410156 L 116.988281 23.269531 L 118.035156 22.988281 L 119.085938 22.8125 L 120.136719 22.578125 L 121.1875 22.390625 L 122.238281 22.167969 L 123.285156 21.878906 L 124.335938 21.625 L 125.386719 21.320313 L 126.4375 21 L 127.488281 20.941406 L 128.535156 20.714844 L 129.585938 20.460938 L 130.636719 20.21875 L 131.6875 20.085938 L 132.738281 19.90625 L 133.785156 19.808594 L 134.835938 19.65625 L 135.886719 19.558594 L 136.9375 19.492188 L 137.988281 19.25 L 139.035156 19.203125 L 140.085938 19.195313 L 141.136719 19.097656 L 142.1875 19.039063 L 143.238281 18.949219 L 144.285156 18.828125 L 145.335938 18.652344 L 146.386719 18.511719 L 147.4375 18.140625 L 148.488281 17.964844 L 149.535156 17.613281 L 150.585938 17.359375 L 151.636719 17.15625 L 152.6875 16.738281 L 153.738281 16.597656 L 154.785156 16.480469 L 155.835938 16.402344 L 157.9375 15.996094 L 158.988281 15.875 L 160.035156 15.5 L 161.085938 15.335938 L 162.136719 15.035156 L 162.136719 48.9375 L 161.085938 49.105469 L 160.035156 49.277344 L 158.988281 49.382813 L 156.886719 49.625 L 155.835938 49.910156 L 154.785156 50.28125 L 153.738281 50.453125 L 152.6875 50.636719 L 151.636719 50.785156 L 150.585938 51.011719 L 149.535156 51.105469 L 148.488281 51.265625 L 147.4375 51.34375 L 146.386719 51.460938 L 145.335938 51.515625 L 144.285156 51.664063 L 143.238281 51.742188 L 142.1875 51.730469 L 141.136719 51.789063 L 140.085938 51.773438 L 139.035156 51.890625 L 137.988281 52.007813 L 136.9375 52.027344 L 135.886719 51.953125 L 134.835938 52.082031 L 133.785156 52.035156 L 132.738281 52.191406 L 131.6875 52.234375 L 130.636719 52.398438 L 129.585938 52.582031 L 128.535156 52.746094 L 127.488281 52.980469 L 126.4375 53.042969 L 125.386719 53.121094 L 124.335938 53.265625 L 123.285156 53.355469 L 122.238281 53.578125 L 121.1875 53.660156 L 120.136719 53.847656 L 119.085938 53.957031 L 118.035156 54.09375 L 116.988281 54.242188 L 115.9375 54.296875 L 114.886719 54.554688 L 112.785156 54.8125 L 111.738281 54.972656 L 110.6875 55.035156 L 109.636719 55 L 108.585938 55.226563 L 107.535156 55.167969 L 106.488281 55.199219 L 105.4375 55.179688 L 104.386719 55.226563 L 103.335938 55.1875 L 102.285156 55.199219 L 101.238281 55.121094 L 100.1875 55.078125 L 99.136719 55.109375 L 98.085938 55.160156 L 97.035156 55.339844 L 95.988281 55.316406 L 94.9375 55.570313 L 93.886719 55.734375 L 92.835938 55.835938 L 91.785156 55.960938 L 90.738281 56.0625 L 89.6875 56.074219 L 88.636719 56.175781 L 86.535156 56.488281 L 85.488281 56.59375 L 84.4375 56.640625 L 83.386719 56.769531 L 82.335938 56.890625 L 81.285156 57.054688 L 80.238281 57.046875 L 79.1875 57.316406 L 78.136719 57.449219 L 77.085938 57.472656 L 76.035156 57.53125 L 74.988281 57.683594 L 73.9375 57.632813 L 72.886719 57.542969 L 71.835938 57.523438 L 70.785156 57.351563 L 69.738281 57.203125 L 68.6875 57.078125 L 67.636719 56.75 L 65.535156 56.421875 L 64.488281 56.394531 L 63.4375 56.429688 L 62.386719 56.460938 L 61.335938 56.398438 L 60.285156 56.515625 L 59.238281 56.441406 L 58.1875 56.714844 L 57.136719 56.640625 L 56.085938 56.769531 L 55.035156 56.816406 L 53.988281 56.59375 L 52.9375 56.539063 L 51.886719 56.507813 L 50.835938 56.402344 L 49.785156 56.191406 L 48.738281 56.070313 L 47.6875 56.148438 L 45.585938 56.007813 L 44.535156 56.011719 L 43.488281 56.042969 L 42.4375 56.136719 L 41.386719 55.996094 L 40.335938 55.90625 L 39.285156 55.671875 L 38.238281 55.085938 L 37.1875 54.265625 L 36.136719 53.339844 L 35.085938 52.09375 Z M 35.085938 44.980469 "/>
</g>
<path style="fill:none;stroke-width:0.02;stroke-linecap:butt;stroke-linejoin:miter;stroke:rgb(0%,0%,100%);stroke-opacity:1;stroke-miterlimit:10;" d="M 1.202476 0.988467 L 1.239545 1.038903 L 1.276615 1.074732 L 1.313684 1.098021 L 1.350615 1.114695 L 1.387684 1.123928 L 1.424754 1.130405 L 1.461823 1.135366 L 1.498892 1.1395 L 1.535824 1.144599 L 1.572893 1.152178 L 1.609962 1.168301 L 1.647031 1.183735 L 1.6841 1.205508 L 1.721032 1.225765 L 1.758101 1.252361 L 1.79517 1.277993 L 1.83224 1.302246 L 1.869309 1.323192 L 1.90624 1.34469 L 1.943309 1.369081 L 1.980379 1.379278 L 2.017448 1.389614 L 2.054517 1.394575 L 2.091449 1.399949 L 2.128518 1.41056 L 2.165587 1.414281 L 2.202656 1.419517 L 2.239725 1.419793 L 2.276657 1.426683 L 2.313726 1.432057 L 2.350795 1.44005 L 2.387865 1.449558 L 2.424934 1.457138 L 2.461865 1.457551 L 2.498934 1.472158 L 2.536004 1.475879 L 2.573073 1.481529 L 2.610142 1.485663 L 2.647074 1.486352 L 2.684143 1.486903 L 2.721212 1.494345 L 2.758281 1.494758 L 2.79535 1.503853 L 2.832282 1.510054 L 2.869351 1.52163 L 2.90642 1.530587 L 2.94349 1.547399 L 2.980559 1.560628 L 3.01749 1.576338 L 3.054559 1.585846 L 3.091629 1.603485 L 3.128698 1.620297 L 3.165767 1.629255 L 3.202699 1.63394 L 3.239768 1.648409 L 3.276837 1.653508 L 3.313906 1.658056 L 3.350975 1.658469 L 3.387907 1.660949 L 3.424976 1.666324 L 3.462045 1.66784 L 3.499115 1.67349 L 3.536184 1.678726 L 3.573115 1.684238 L 3.610184 1.689475 L 3.647254 1.694436 L 3.684323 1.696641 L 3.721392 1.697743 L 3.758324 1.702291 L 3.795393 1.712488 L 3.832462 1.713177 L 3.869531 1.726957 L 3.9066 1.728473 L 3.943532 1.731229 L 3.980601 1.739222 L 4.01767 1.738533 L 4.05474 1.749419 L 4.091809 1.75438 L 4.12874 1.764302 L 4.165809 1.770503 L 4.202879 1.778772 L 4.239948 1.785386 L 4.277017 1.793241 L 4.313949 1.803439 L 4.351018 1.812396 L 4.388087 1.823145 L 4.425156 1.834444 L 4.462225 1.836512 L 4.499157 1.844504 L 4.536226 1.853461 L 4.573295 1.862005 L 4.610365 1.866691 L 4.647434 1.87303 L 4.684365 1.876475 L 4.721434 1.881849 L 4.758504 1.885294 L 4.795573 1.887637 L 4.832642 1.896181 L 4.869574 1.897834 L 4.906643 1.89811 L 4.943712 1.901555 L 4.980781 1.903622 L 5.01785 1.906791 L 5.054782 1.911063 L 5.091851 1.917265 L 5.12892 1.922225 L 5.16599 1.935317 L 5.203059 1.941518 L 5.23999 1.95392 L 5.277059 1.962878 L 5.314129 1.970043 L 5.351198 1.984788 L 5.388267 1.989749 L 5.425199 1.993883 L 5.462268 1.99664 L 5.536406 2.010971 L 5.573475 2.015243 L 5.610407 2.028472 L 5.647476 2.03426 " transform="matrix(28.346457,0,0,-28.346457,1,73)"/>
<path style="fill:none;stroke-width:0.02;stroke-linecap:butt;stroke-linejoin:miter;stroke:rgb(0%,0%,100%);stroke-opacity:1;stroke-miterlimit:10;" d="M 1.202476 0.737526 L 1.239545 0.693567 L 1.276615 0.660907 L 1.313684 0.631968 L 1.350615 0.611298 L 1.387684 0.60303 L 1.424754 0.59986 L 1.461823 0.594899 L 1.498892 0.598206 L 1.535824 0.599309 L 1.572893 0.599447 L 1.647031 0.594486 L 1.6841 0.597242 L 1.721032 0.59297 L 1.758101 0.585528 L 1.79517 0.581808 L 1.83224 0.580705 L 1.869309 0.578776 L 1.90624 0.570921 L 1.943309 0.572575 L 1.980379 0.577122 L 2.017448 0.574504 L 2.054517 0.58415 L 2.091449 0.581532 L 2.128518 0.585666 L 2.165587 0.583461 L 2.202656 0.584564 L 2.239725 0.585804 L 2.276657 0.584839 L 2.350795 0.573264 L 2.387865 0.561688 L 2.424934 0.557279 L 2.461865 0.552042 L 2.498934 0.545979 L 2.536004 0.54529 L 2.573073 0.54212 L 2.610142 0.540329 L 2.647074 0.545703 L 2.684143 0.54777 L 2.721212 0.548597 L 2.758281 0.553282 L 2.79535 0.562791 L 2.832282 0.562515 L 2.869351 0.568303 L 2.90642 0.572575 L 2.94349 0.577122 L 2.980559 0.578776 L 3.01749 0.582497 L 3.091629 0.593521 L 3.128698 0.597104 L 3.165767 0.597517 L 3.202699 0.6011 L 3.239768 0.60551 L 3.276837 0.609093 L 3.313906 0.614881 L 3.350975 0.623838 L 3.387907 0.623011 L 3.424976 0.62935 L 3.462045 0.631141 L 3.499115 0.632244 L 3.536184 0.630728 L 3.573115 0.627972 L 3.610184 0.628385 L 3.647254 0.627007 L 3.684323 0.628661 L 3.721392 0.627972 L 3.758324 0.629074 L 3.795393 0.627007 L 3.832462 0.635 L 3.869531 0.63376 L 3.9066 0.635965 L 3.943532 0.641615 L 4.01767 0.65071 L 4.05474 0.659805 L 4.091809 0.661734 L 4.12874 0.66697 L 4.165809 0.671794 L 4.202879 0.675652 L 4.239948 0.682267 L 4.277017 0.685161 L 4.313949 0.693015 L 4.351018 0.696185 L 4.388087 0.701284 L 4.425156 0.70404 L 4.462225 0.706245 L 4.499157 0.714513 L 4.536226 0.720301 L 4.573295 0.726777 L 4.610365 0.732565 L 4.647434 0.734081 L 4.684365 0.739593 L 4.721434 0.737939 L 4.758504 0.742487 L 4.795573 0.739869 L 4.832642 0.740558 L 4.869574 0.744692 L 4.906643 0.748826 L 4.943712 0.748275 L 4.980781 0.750342 L 5.01785 0.749928 L 5.054782 0.752684 L 5.091851 0.757921 L 5.12892 0.75985 L 5.16599 0.763984 L 5.203059 0.76674 L 5.23999 0.77239 L 5.277059 0.775698 L 5.314129 0.78369 L 5.351198 0.788927 L 5.388267 0.795404 L 5.425199 0.801467 L 5.462268 0.814558 L 5.499337 0.824618 L 5.573475 0.833162 L 5.610407 0.836883 L 5.647476 0.842946 " transform="matrix(28.346457,0,0,-28.346457,1,73)"/>
<path style="fill:none;stroke-width:0.02;stroke-linecap:butt;stroke-linejoin:miter;stroke:rgb(0%,0%,100%);stroke-opacity:1;stroke-miterlimit:10;" d="M 1.202476 0.862928 L 1.239545 0.866235 L 1.276615 0.867888 L 1.313684 0.864995 L 1.350615 0.862928 L 1.387684 0.863479 L 1.424754 0.865132 L 1.461823 0.865132 L 1.498892 0.868853 L 1.535824 0.872023 L 1.572893 0.875881 L 1.609962 0.882633 L 1.647031 0.88911 L 1.6841 0.901375 L 1.721032 0.909367 L 1.758101 0.918876 L 1.79517 0.9299 L 1.83224 0.941476 L 1.869309 0.950984 L 1.90624 0.957874 L 1.943309 0.970828 L 1.980379 0.978269 L 2.017448 0.982128 L 2.054517 0.989431 L 2.091449 0.990672 L 2.128518 0.998113 L 2.165587 0.998802 L 2.202656 1.001972 L 2.239725 1.002798 L 2.276657 1.00583 L 2.313726 1.005554 L 2.350795 1.006657 L 2.387865 1.005692 L 2.424934 1.007208 L 2.461865 1.004865 L 2.498934 1.009 L 2.536004 1.010653 L 2.573073 1.011756 L 2.610142 1.012996 L 2.647074 1.016028 L 2.684143 1.017268 L 2.721212 1.021402 L 2.758281 1.02402 L 2.79535 1.033391 L 2.832282 1.036285 L 2.869351 1.044966 L 2.90642 1.051581 L 2.94349 1.06233 L 2.980559 1.069771 L 3.01749 1.079417 L 3.054559 1.086997 L 3.091629 1.098434 L 3.128698 1.108632 L 3.165767 1.113455 L 3.202699 1.117589 L 3.239768 1.12696 L 3.276837 1.131369 L 3.313906 1.136468 L 3.350975 1.141153 L 3.387907 1.14198 L 3.424976 1.147768 L 3.462045 1.149559 L 3.499115 1.152867 L 3.536184 1.154796 L 3.573115 1.156174 L 3.610184 1.15893 L 3.647254 1.160722 L 3.684323 1.162651 L 3.721392 1.162789 L 3.758324 1.165683 L 3.795393 1.169817 L 3.832462 1.174089 L 3.869531 1.18029 L 3.9066 1.182219 L 3.943532 1.186353 L 3.980601 1.192692 L 4.01767 1.194621 L 4.05474 1.204543 L 4.091809 1.208126 L 4.12874 1.215567 L 4.165809 1.22108 L 4.202879 1.227143 L 4.239948 1.233895 L 4.277017 1.239132 L 4.313949 1.248227 L 4.351018 1.25429 L 4.388087 1.262283 L 4.425156 1.269311 L 4.462225 1.271378 L 4.499157 1.279508 L 4.536226 1.286812 L 4.573295 1.294391 L 4.610365 1.299628 L 4.647434 1.303624 L 4.684365 1.308034 L 4.721434 1.309825 L 4.758504 1.313959 L 4.795573 1.313822 L 4.832642 1.318369 L 4.869574 1.321263 L 4.906643 1.323468 L 4.943712 1.324984 L 4.980781 1.327051 L 5.01785 1.328291 L 5.054782 1.331874 L 5.091851 1.337524 L 5.12892 1.340969 L 5.16599 1.349651 L 5.203059 1.35406 L 5.23999 1.363155 L 5.277059 1.369357 L 5.314129 1.376936 L 5.351198 1.386858 L 5.388267 1.392508 L 5.425199 1.397744 L 5.462268 1.405599 L 5.499337 1.414143 L 5.536406 1.419931 L 5.573475 1.424202 L 5.610407 1.432746 L 5.647476 1.438534 " transform="matrix(28.346457,0,0,-28.346457,1,73)"/>
<g clip-path="url(#clip2)" clip-rule="nonzero">
<path style=" stroke:none;fill-rule:nonzero;fill:rgb(100%,0%,0%);fill-opacity:0.313725;" d="M 35.085938 48.453125 L 41.386719 48.453125 L 43.488281 48.226563 L 45.585938 47.996094 L 47.6875 47.539063 L 49.785156 47.078125 L 51.886719 46.394531 L 53.988281 45.933594 L 56.085938 45.476563 L 58.1875 45.246094 L 60.285156 45.019531 L 64.488281 44.558594 L 68.6875 44.558594 L 70.785156 44.789063 L 72.886719 44.558594 L 74.988281 44.332031 L 77.085938 44.101563 L 79.1875 43.871094 L 81.285156 43.414063 L 85.488281 42.5 L 87.585938 42.039063 L 89.6875 41.582031 L 91.785156 41.351563 L 93.886719 40.894531 L 95.988281 40.664063 L 98.085938 40.4375 L 100.1875 40.207031 L 106.488281 40.207031 L 108.585938 39.976563 L 110.6875 39.519531 L 112.785156 39.289063 L 116.988281 38.375 L 119.085938 38.144531 L 121.1875 37.6875 L 123.285156 37.230469 L 127.488281 36.769531 L 129.585938 36.542969 L 131.6875 36.3125 L 137.988281 36.3125 L 140.085938 36.082031 L 142.1875 35.625 L 144.285156 35.394531 L 146.386719 34.710938 L 148.488281 34.25 L 150.585938 33.5625 L 152.6875 33.105469 L 154.785156 32.648438 L 158.988281 32.1875 L 163.1875 32.1875 L 158.988281 32.1875 L 154.785156 32.648438 L 152.6875 33.105469 L 150.585938 33.5625 L 148.488281 34.25 L 146.386719 34.710938 L 144.285156 35.394531 L 142.1875 35.625 L 140.085938 36.082031 L 137.988281 36.3125 L 131.6875 36.3125 L 129.585938 36.542969 L 127.488281 36.769531 L 123.285156 37.230469 L 121.1875 37.6875 L 119.085938 38.144531 L 116.988281 38.375 L 112.785156 39.289063 L 110.6875 39.519531 L 108.585938 39.976563 L 106.488281 40.207031 L 100.1875 40.207031 L 98.085938 40.4375 L 95.988281 40.664063 L 93.886719 40.894531 L 91.785156 41.351563 L 89.6875 41.582031 L 87.585938 42.039063 L 85.488281 42.5 L 81.285156 43.414063 L 79.1875 43.871094 L 77.085938 44.101563 L 74.988281 44.332031 L 72.886719 44.558594 L 70.785156 44.789063 L 68.6875 44.558594 L 64.488281 44.558594 L 60.285156 45.019531 L 58.1875 45.246094 L 56.085938 45.476563 L 53.988281 45.933594 L 51.886719 46.394531 L 49.785156 47.078125 L 47.6875 47.539063 L 45.585938 47.996094 L 43.488281 48.226563 L 41.386719 48.453125 Z M 35.085938 48.453125 "/>
</g>
<path style="fill:none;stroke-width:0.02;stroke-linecap:butt;stroke-linejoin:miter;stroke:rgb(100%,0%,0%);stroke-opacity:1;stroke-dasharray:0.16,0.04;stroke-miterlimit:10;" d="M 1.202476 0.865959 L 1.424754 0.865959 L 1.498892 0.873952 L 1.572893 0.882082 L 1.647031 0.898205 L 1.721032 0.914466 L 1.79517 0.938582 L 1.869309 0.954843 L 1.943309 0.970966 L 2.017448 0.979096 L 2.091449 0.987089 L 2.239725 1.00335 L 2.387865 1.00335 L 2.461865 0.995219 L 2.536004 1.00335 L 2.610142 1.011342 L 2.684143 1.019473 L 2.758281 1.027603 L 2.832282 1.043726 L 2.980559 1.075972 L 3.054559 1.092233 L 3.128698 1.108356 L 3.202699 1.116487 L 3.276837 1.13261 L 3.350975 1.14074 L 3.424976 1.148733 L 3.499115 1.156863 L 3.721392 1.156863 L 3.795393 1.164993 L 3.869531 1.181117 L 3.943532 1.189247 L 4.091809 1.221493 L 4.165809 1.229623 L 4.239948 1.245747 L 4.313949 1.26187 L 4.462225 1.27813 L 4.536226 1.286123 L 4.610365 1.294253 L 4.832642 1.294253 L 4.906643 1.302384 L 4.980781 1.318507 L 5.054782 1.326637 L 5.12892 1.350753 L 5.203059 1.367014 L 5.277059 1.391267 L 5.351198 1.40739 L 5.425199 1.423513 L 5.573475 1.439774 L 5.647476 1.439774 " transform="matrix(28.346457,0,0,-28.346457,1,73)"/>
<path style="fill:none;stroke-width:0.02;stroke-linecap:butt;stroke-linejoin:miter;stroke:rgb(100%,0%,0%);stroke-opacity:1;stroke-dasharray:0.16,0.04;stroke-miterlimit:10;" d="M 1.202476 0.865959 L 1.424754 0.865959 L 1.498892 0.873952 L 1.572893 0.882082 L 1.647031 0.898205 L 1.721032 0.914466 L 1.79517 0.938582 L 1.869309 0.954843 L 1.943309 0.970966 L 2.017448 0.979096 L 2.091449 0.987089 L 2.239725 1.00335 L 2.387865 1.00335 L 2.461865 0.995219 L 2.536004 1.00335 L 2.610142 1.011342 L 2.684143 1.019473 L 2.758281 1.027603 L 2.832282 1.043726 L 2.980559 1.075972 L 3.054559 1.092233 L 3.128698 1.108356 L 3.202699 1.116487 L 3.276837 1.13261 L 3.350975 1.14074 L 3.424976 1.148733 L 3.499115 1.156863 L 3.721392 1.156863 L 3.795393 1.164993 L 3.869531 1.181117 L 3.943532 1.189247 L 4.091809 1.221493 L 4.165809 1.229623 L 4.239948 1.245747 L 4.313949 1.26187 L 4.462225 1.27813 L 4.536226 1.286123 L 4.610365 1.294253 L 4.832642 1.294253 L 4.906643 1.302384 L 4.980781 1.318507 L 5.054782 1.326637 L 5.12892 1.350753 L 5.203059 1.367014 L 5.277059 1.391267 L 5.351198 1.40739 L 5.425199 1.423513 L 5.573475 1.439774 L 5.647476 1.439774 " transform="matrix(28.346457,0,0,-28.346457,1,73)"/>
<path style="fill:none;stroke-width:0.02;stroke-linecap:butt;stroke-linejoin:miter;stroke:rgb(100%,0%,0%);stroke-opacity:1;stroke-dasharray:0.16,0.04;stroke-miterlimit:10;" d="M 1.202476 0.865959 L 1.424754 0.865959 L 1.498892 0.873952 L 1.572893 0.882082 L 1.647031 0.898205 L 1.721032 0.914466 L 1.79517 0.938582 L 1.869309 0.954843 L 1.943309 0.970966 L 2.017448 0.979096 L 2.091449 0.987089 L 2.239725 1.00335 L 2.387865 1.00335 L 2.461865 0.995219 L 2.536004 1.00335 L 2.610142 1.011342 L 2.684143 1.019473 L 2.758281 1.027603 L 2.832282 1.043726 L 2.980559 1.075972 L 3.054559 1.092233 L 3.128698 1.108356 L 3.202699 1.116487 L 3.276837 1.13261 L 3.350975 1.14074 L 3.424976 1.148733 L 3.499115 1.156863 L 3.721392 1.156863 L 3.795393 1.164993 L 3.869531 1.181117 L 3.943532 1.189247 L 4.091809 1.221493 L 4.165809 1.229623 L 4.239948 1.245747 L 4.313949 1.26187 L 4.462225 1.27813 L 4.536226 1.286123 L 4.610365 1.294253 L 4.832642 1.294253 L 4.906643 1.302384 L 4.980781 1.318507 L 5.054782 1.326637 L 5.12892 1.350753 L 5.203059 1.367014 L 5.277059 1.391267 L 5.351198 1.40739 L 5.425199 1.423513 L 5.573475 1.439774 L 5.647476 1.439774 " transform="matrix(28.346457,0,0,-28.346457,1,73)"/>
<path style="fill:none;stroke-width:0.02;stroke-linecap:butt;stroke-linejoin:miter;stroke:rgb(0%,0%,0%);stroke-opacity:1;stroke-miterlimit:10;" d="M 1.202476 0.502295 L 1.257046 0.502295 " transform="matrix(28.346457,0,0,-28.346457,1,73)"/>
<path style="fill:none;stroke-width:0.02;stroke-linecap:butt;stroke-linejoin:miter;stroke:rgb(0%,0%,0%);stroke-opacity:1;stroke-miterlimit:10;" d="M 1.202476 0.906336 L 1.257046 0.906336 " transform="matrix(28.346457,0,0,-28.346457,1,73)"/>
<path style="fill:none;stroke-width:0.02;stroke-linecap:butt;stroke-linejoin:miter;stroke:rgb(0%,0%,0%);stroke-opacity:1;stroke-miterlimit:10;" d="M 1.202476 1.310377 L 1.257046 1.310377 " transform="matrix(28.346457,0,0,-28.346457,1,73)"/>
<path style="fill:none;stroke-width:0.02;stroke-linecap:butt;stroke-linejoin:miter;stroke:rgb(0%,0%,0%);stroke-opacity:1;stroke-miterlimit:10;" d="M 1.202476 1.714555 L 1.257046 1.714555 " transform="matrix(28.346457,0,0,-28.346457,1,73)"/>
<path style="fill:none;stroke-width:0.02;stroke-linecap:butt;stroke-linejoin:miter;stroke:rgb(0%,0%,0%);stroke-opacity:1;stroke-miterlimit:10;" d="M 1.202476 2.118596 L 1.257046 2.118596 " transform="matrix(28.346457,0,0,-28.346457,1,73)"/>
<path style="fill:none;stroke-width:0.02;stroke-linecap:butt;stroke-linejoin:miter;stroke:rgb(0%,0%,0%);stroke-opacity:1;stroke-miterlimit:10;" d="M 1.202476 0.704315 L 1.311479 0.704315 " transform="matrix(28.346457,0,0,-28.346457,1,73)"/>
<path style="fill:none;stroke-width:0.02;stroke-linecap:butt;stroke-linejoin:miter;stroke:rgb(0%,0%,0%);stroke-opacity:1;stroke-miterlimit:10;" d="M 1.202476 1.108356 L 1.311479 1.108356 " transform="matrix(28.346457,0,0,-28.346457,1,73)"/>
<path style="fill:none;stroke-width:0.02;stroke-linecap:butt;stroke-linejoin:miter;stroke:rgb(0%,0%,0%);stroke-opacity:1;stroke-miterlimit:10;" d="M 1.202476 1.512397 L 1.311479 1.512397 " transform="matrix(28.346457,0,0,-28.346457,1,73)"/>
<path style="fill:none;stroke-width:0.02;stroke-linecap:butt;stroke-linejoin:miter;stroke:rgb(0%,0%,0%);stroke-opacity:1;stroke-miterlimit:10;" d="M 1.202476 1.916576 L 1.311479 1.916576 " transform="matrix(28.346457,0,0,-28.346457,1,73)"/>
<path style="fill:none;stroke-width:0.02;stroke-linecap:round;stroke-linejoin:miter;stroke:rgb(0%,0%,0%);stroke-opacity:1;stroke-miterlimit:10;" d="M 1.202476 0.381028 L 1.202476 2.158972 " transform="matrix(28.346457,0,0,-28.346457,1,73)"/>
<path style="fill:none;stroke-width:0.02;stroke-linecap:butt;stroke-linejoin:miter;stroke:rgb(0%,0%,0%);stroke-opacity:1;stroke-miterlimit:10;" d="M 5.647476 0.502295 L 5.593044 0.502295 " transform="matrix(28.346457,0,0,-28.346457,1,73)"/>
<path style="fill:none;stroke-width:0.02;stroke-linecap:butt;stroke-linejoin:miter;stroke:rgb(0%,0%,0%);stroke-opacity:1;stroke-miterlimit:10;" d="M 5.647476 0.906336 L 5.593044 0.906336 " transform="matrix(28.346457,0,0,-28.346457,1,73)"/>
<path style="fill:none;stroke-width:0.02;stroke-linecap:butt;stroke-linejoin:miter;stroke:rgb(0%,0%,0%);stroke-opacity:1;stroke-miterlimit:10;" d="M 5.647476 1.310377 L 5.593044 1.310377 " transform="matrix(28.346457,0,0,-28.346457,1,73)"/>
<path style="fill:none;stroke-width:0.02;stroke-linecap:butt;stroke-linejoin:miter;stroke:rgb(0%,0%,0%);stroke-opacity:1;stroke-miterlimit:10;" d="M 5.647476 1.714555 L 5.593044 1.714555 " transform="matrix(28.346457,0,0,-28.346457,1,73)"/>
<path style="fill:none;stroke-width:0.02;stroke-linecap:butt;stroke-linejoin:miter;stroke:rgb(0%,0%,0%);stroke-opacity:1;stroke-miterlimit:10;" d="M 5.647476 2.118596 L 5.593044 2.118596 " transform="matrix(28.346457,0,0,-28.346457,1,73)"/>
<path style="fill:none;stroke-width:0.02;stroke-linecap:butt;stroke-linejoin:miter;stroke:rgb(0%,0%,0%);stroke-opacity:1;stroke-miterlimit:10;" d="M 5.647476 0.704315 L 5.538473 0.704315 " transform="matrix(28.346457,0,0,-28.346457,1,73)"/>
<path style="fill:none;stroke-width:0.02;stroke-linecap:butt;stroke-linejoin:miter;stroke:rgb(0%,0%,0%);stroke-opacity:1;stroke-miterlimit:10;" d="M 5.647476 1.108356 L 5.538473 1.108356 " transform="matrix(28.346457,0,0,-28.346457,1,73)"/>
<path style="fill:none;stroke-width:0.02;stroke-linecap:butt;stroke-linejoin:miter;stroke:rgb(0%,0%,0%);stroke-opacity:1;stroke-miterlimit:10;" d="M 5.647476 1.512397 L 5.538473 1.512397 " transform="matrix(28.346457,0,0,-28.346457,1,73)"/>
<path style="fill:none;stroke-width:0.02;stroke-linecap:butt;stroke-linejoin:miter;stroke:rgb(0%,0%,0%);stroke-opacity:1;stroke-miterlimit:10;" d="M 5.647476 1.916576 L 5.538473 1.916576 " transform="matrix(28.346457,0,0,-28.346457,1,73)"/>
<path style="fill:none;stroke-width:0.02;stroke-linecap:round;stroke-linejoin:miter;stroke:rgb(0%,0%,0%);stroke-opacity:1;stroke-miterlimit:10;" d="M 5.647476 0.381028 L 5.647476 2.158972 " transform="matrix(28.346457,0,0,-28.346457,1,73)"/>
<path style="fill:none;stroke-width:0.02;stroke-linecap:butt;stroke-linejoin:miter;stroke:rgb(0%,0%,0%);stroke-opacity:1;stroke-miterlimit:10;" d="M 1.647031 0.381028 L 1.647031 0.43546 " transform="matrix(28.346457,0,0,-28.346457,1,73)"/>
<path style="fill:none;stroke-width:0.02;stroke-linecap:butt;stroke-linejoin:miter;stroke:rgb(0%,0%,0%);stroke-opacity:1;stroke-miterlimit:10;" d="M 2.536004 0.381028 L 2.536004 0.43546 " transform="matrix(28.346457,0,0,-28.346457,1,73)"/>
<path style="fill:none;stroke-width:0.02;stroke-linecap:butt;stroke-linejoin:miter;stroke:rgb(0%,0%,0%);stroke-opacity:1;stroke-miterlimit:10;" d="M 3.424976 0.381028 L 3.424976 0.43546 " transform="matrix(28.346457,0,0,-28.346457,1,73)"/>
<path style="fill:none;stroke-width:0.02;stroke-linecap:butt;stroke-linejoin:miter;stroke:rgb(0%,0%,0%);stroke-opacity:1;stroke-miterlimit:10;" d="M 4.313949 0.381028 L 4.313949 0.43546 " transform="matrix(28.346457,0,0,-28.346457,1,73)"/>
<path style="fill:none;stroke-width:0.02;stroke-linecap:butt;stroke-linejoin:miter;stroke:rgb(0%,0%,0%);stroke-opacity:1;stroke-miterlimit:10;" d="M 5.203059 0.381028 L 5.203059 0.43546 " transform="matrix(28.346457,0,0,-28.346457,1,73)"/>
<path style="fill:none;stroke-width:0.02;stroke-linecap:butt;stroke-linejoin:miter;stroke:rgb(0%,0%,0%);stroke-opacity:1;stroke-miterlimit:10;" d="M 2.091449 0.381028 L 2.091449 0.49003 " transform="matrix(28.346457,0,0,-28.346457,1,73)"/>
<path style="fill:none;stroke-width:0.02;stroke-linecap:butt;stroke-linejoin:miter;stroke:rgb(0%,0%,0%);stroke-opacity:1;stroke-miterlimit:10;" d="M 2.980559 0.381028 L 2.980559 0.49003 " transform="matrix(28.346457,0,0,-28.346457,1,73)"/>
<path style="fill:none;stroke-width:0.02;stroke-linecap:butt;stroke-linejoin:miter;stroke:rgb(0%,0%,0%);stroke-opacity:1;stroke-miterlimit:10;" d="M 3.869531 0.381028 L 3.869531 0.49003 " transform="matrix(28.346457,0,0,-28.346457,1,73)"/>
<path style="fill:none;stroke-width:0.02;stroke-linecap:butt;stroke-linejoin:miter;stroke:rgb(0%,0%,0%);stroke-opacity:1;stroke-miterlimit:10;" d="M 4.758504 0.381028 L 4.758504 0.49003 " transform="matrix(28.346457,0,0,-28.346457,1,73)"/>
<path style="fill:none;stroke-width:0.02;stroke-linecap:round;stroke-linejoin:miter;stroke:rgb(0%,0%,0%);stroke-opacity:1;stroke-miterlimit:10;" d="M 1.202476 0.381028 L 5.647476 0.381028 " transform="matrix(28.346457,0,0,-28.346457,1,73)"/>
<path style="fill:none;stroke-width:0.02;stroke-linecap:butt;stroke-linejoin:miter;stroke:rgb(0%,0%,0%);stroke-opacity:1;stroke-miterlimit:10;" d="M 1.647031 2.158972 L 1.647031 2.10454 " transform="matrix(28.346457,0,0,-28.346457,1,73)"/>
<path style="fill:none;stroke-width:0.02;stroke-linecap:butt;stroke-linejoin:miter;stroke:rgb(0%,0%,0%);stroke-opacity:1;stroke-miterlimit:10;" d="M 2.536004 2.158972 L 2.536004 2.10454 " transform="matrix(28.346457,0,0,-28.346457,1,73)"/>
<path style="fill:none;stroke-width:0.02;stroke-linecap:butt;stroke-linejoin:miter;stroke:rgb(0%,0%,0%);stroke-opacity:1;stroke-miterlimit:10;" d="M 3.424976 2.158972 L 3.424976 2.10454 " transform="matrix(28.346457,0,0,-28.346457,1,73)"/>
<path style="fill:none;stroke-width:0.02;stroke-linecap:butt;stroke-linejoin:miter;stroke:rgb(0%,0%,0%);stroke-opacity:1;stroke-miterlimit:10;" d="M 4.313949 2.158972 L 4.313949 2.10454 " transform="matrix(28.346457,0,0,-28.346457,1,73)"/>
<path style="fill:none;stroke-width:0.02;stroke-linecap:butt;stroke-linejoin:miter;stroke:rgb(0%,0%,0%);stroke-opacity:1;stroke-miterlimit:10;" d="M 5.203059 2.158972 L 5.203059 2.10454 " transform="matrix(28.346457,0,0,-28.346457,1,73)"/>
<path style="fill:none;stroke-width:0.02;stroke-linecap:butt;stroke-linejoin:miter;stroke:rgb(0%,0%,0%);stroke-opacity:1;stroke-miterlimit:10;" d="M 2.091449 2.158972 L 2.091449 2.04997 " transform="matrix(28.346457,0,0,-28.346457,1,73)"/>
<path style="fill:none;stroke-width:0.02;stroke-linecap:butt;stroke-linejoin:miter;stroke:rgb(0%,0%,0%);stroke-opacity:1;stroke-miterlimit:10;" d="M 2.980559 2.158972 L 2.980559 2.04997 " transform="matrix(28.346457,0,0,-28.346457,1,73)"/>
<path style="fill:none;stroke-width:0.02;stroke-linecap:butt;stroke-linejoin:miter;stroke:rgb(0%,0%,0%);stroke-opacity:1;stroke-miterlimit:10;" d="M 3.869531 2.158972 L 3.869531 2.04997 " transform="matrix(28.346457,0,0,-28.346457,1,73)"/>
<path style="fill:none;stroke-width:0.02;stroke-linecap:butt;stroke-linejoin:miter;stroke:rgb(0%,0%,0%);stroke-opacity:1;stroke-miterlimit:10;" d="M 4.758504 2.158972 L 4.758504 2.04997 " transform="matrix(28.346457,0,0,-28.346457,1,73)"/>
<path style="fill:none;stroke-width:0.02;stroke-linecap:round;stroke-linejoin:miter;stroke:rgb(0%,0%,0%);stroke-opacity:1;stroke-miterlimit:10;" d="M 1.202476 2.158972 L 5.647476 2.158972 " transform="matrix(28.346457,0,0,-28.346457,1,73)"/>
</g>
</svg>
